<svg width="40" height="40" viewBox="0 0 40 40" fill="none" xmlns="http://www.w3.org/2000/svg">
<circle cx="20" cy="20" r="20" fill="#F8F8F8"/>
<path fill-rule="evenodd" clip-rule="evenodd" d="M11.6996 13.2279L17.6431 19.1739C18.9393 20.4677 21.0583 20.4688 22.3557 19.1739L28.2991 13.2279C28.359 13.1681 28.3502 13.0695 28.2808 13.0211C27.6746 12.5983 26.937 12.3477 26.1425 12.3477H13.8562C13.0617 12.3477 12.3241 12.5983 11.7179 13.0211C11.6485 13.0695 11.6398 13.1681 11.6996 13.2279ZM10.1113 16.0925C10.1113 15.4677 10.2662 14.8774 10.5391 14.3586C10.5818 14.2774 10.6899 14.261 10.7547 14.3259L16.6229 20.1941C18.4812 22.055 21.5164 22.0561 23.3758 20.1941L29.244 14.3259C29.3089 14.261 29.417 14.2774 29.4597 14.3586C29.7325 14.8774 29.8874 15.4678 29.8874 16.0925V23.9101C29.8874 25.9766 28.2065 27.655 26.1425 27.655H13.8562C11.7924 27.655 10.1113 25.9766 10.1113 23.9101V16.0925Z" fill="#2B4E82"/>
</svg>
