<svg width="40" height="41" viewBox="0 0 40 41" fill="none" xmlns="http://www.w3.org/2000/svg">
<circle cx="20" cy="20.8486" r="20" fill="#F8F8F8"/>
<path d="M12.2739 10.083C10.7738 10.083 9.79297 11.068 9.79297 12.3626C9.79297 13.6286 10.7446 14.6416 12.2164 14.6416H12.2448C13.7743 14.6416 14.7262 13.6286 14.7262 12.3626C14.6976 11.068 13.7743 10.083 12.2739 10.083Z" fill="#2B4E82"/>
<path d="M10.0527 16.4365H14.4383V29.6292H10.0527V16.4365Z" fill="#2B4E82"/>
<path d="M25.2032 16.1299C22.8373 16.1299 21.2509 18.3527 21.2509 18.3527V16.4395H16.8652V29.6321H21.2507V22.2649C21.2507 21.8705 21.2793 21.4767 21.3951 21.1946C21.7122 20.4071 22.4336 19.5912 23.6452 19.5912C25.2321 19.5912 25.8668 20.801 25.8668 22.5745V29.6321H30.252V22.0677C30.252 18.0155 28.0883 16.1299 25.2032 16.1299Z" fill="#2B4E82"/>
</svg>
