<svg width="40" height="41" viewBox="0 0 40 41" fill="none" xmlns="http://www.w3.org/2000/svg">
<circle cx="20" cy="20.8486" r="20" fill="#F8F8F8"/>
<path d="M26.4309 13.0635H13.5691C11.0457 13.0635 9 15.1091 9 17.6326V24.0621C9 26.5856 11.0457 28.6312 13.5691 28.6312H26.4309C28.9543 28.6312 31 26.5856 31 24.0621V17.6326C31 15.1091 28.9543 13.0635 26.4309 13.0635ZM23.3408 21.1602L17.325 24.0294C17.1647 24.1058 16.9795 23.989 16.9795 23.8114V17.8936C16.9795 17.7135 17.1695 17.5968 17.3302 17.6782L23.346 20.7268C23.5249 20.8174 23.5218 21.0739 23.3408 21.1602Z" fill="#2B4E82"/>
</svg>
