<svg width="40" height="40" viewBox="0 0 40 40" fill="none" xmlns="http://www.w3.org/2000/svg">
<circle cx="20" cy="20" r="20" fill="#F8F8F8"/>
<path d="M12.2739 9.23438C10.7738 9.23438 9.79297 10.2193 9.79297 11.5139C9.79297 12.7799 10.7446 13.793 12.2164 13.793H12.2448C13.7743 13.793 14.7262 12.7799 14.7262 11.5139C14.6976 10.2193 13.7743 9.23438 12.2739 9.23438Z" fill="#2B4E82"/>
<path d="M10.0527 15.5879H14.4383V28.7805H10.0527V15.5879Z" fill="#2B4E82"/>
<path d="M25.2032 15.2812C22.8373 15.2812 21.2509 17.5041 21.2509 17.5041V15.5909H16.8652V28.7835H21.2507V21.4162C21.2507 21.0218 21.2793 20.628 21.3951 20.346C21.7122 19.5584 22.4336 18.7425 23.6452 18.7425C25.2321 18.7425 25.8668 19.9523 25.8668 21.7259V28.7835H30.252V21.2191C30.252 17.1669 28.0883 15.2812 25.2032 15.2812Z" fill="#2B4E82"/>
</svg>
