<svg width="164" height="26" viewBox="0 0 164 26" fill="none" xmlns="http://www.w3.org/2000/svg">
<path d="M10.0497 24.6748V21.2961H6.67089V17.9173H3.33151V14.6173H0V11.1991H3.33938V7.82037H6.67877V4.48099H10.0575V1.1416H13.4757V4.55975H10.0969V7.89913H6.75753V11.2385H3.41814V14.5385H6.75753V17.8385H10.0969V21.2567H13.4757V24.6748H10.0497Z" fill="#8498B5"/>
<path d="M30.2038 7.06464V12.9007H27.2504V18.7761H24.3678V24.683H21.3828V18.7052H24.3048V12.8692H27.1874V6.99376H30.1723V1.15771H33.1573V7.06464H30.2038Z" fill="#8498B5"/>
<path d="M160.346 14.6251V17.9645H156.738V21.3039H153.131V24.6826H149.438V21.2645H153.045V17.8857H156.652V14.5463H160.306V11.2463H156.652V7.90694H153.045V4.56756H149.438V1.14941H153.131V4.4888H156.738V7.82819H160.346V11.2069H164V14.6251H160.346Z" fill="#8498B5"/>
<path d="M67.4651 0V25.8408H62.9601V7.93891H61.7078V9.93152H60.4556V12.5542H59.1639V14.9878H57.9117V17.39H56.6594V19.7922H55.7773V21.4933H53.5248V19.7922H52.7529V17.39H51.5007V14.9878H50.2484V12.5542H48.9961V9.93152H47.7202V7.93891H46.4601V25.8408H41.9551V0H46.72V2.03199H48.4921V4.39476H50.2248V7.1277H51.477V9.67161H52.7293V12.0738H54.021V14.917H55.3835V12.0738H56.6358V9.67161H57.888V7.1277H59.1403V4.39476H60.9124V2.03199H62.6451V0H67.4651Z" fill="white"/>
<path d="M91.432 16.248V19.6425H89.9513V22.0447H88.4391V24.4074H86.927V25.8487H71.498V0H86.415V1.44129H87.9272V4.8043H89.4394V8.12794H87.9272V10.6404H86.927V12.0029H88.4391V13.8852H89.9513V16.248H91.432ZM76.0031 2.88258V10.0418H83.4222V8.12006H84.9343V4.79642H83.4222V2.87471H76.0031V2.88258ZM86.927 16.248H85.4463V14.3657H83.9341V12.9244H75.9952V22.9661H83.9341V21.5249H85.4463V19.6425H86.927V16.248Z" fill="white"/>
<path d="M116.54 0V25.8408H112.075V23.6986H110.633V21.517H109.192V19.3747H107.751V17.2325H106.309V15.0902H104.868V12.9086H103.387V10.7664H101.946V8.62411H100.505V5.96206H99.0636V25.8251H94.5586V0H100.024V1.1105H101.466V3.25275H102.907V5.39499H104.348V7.53724H105.79V9.71887H107.27V11.8611H108.712V14.0034H110.153V15.996H111.114V17.8783H112.075V0H116.54Z" fill="white"/>
<path d="M136.553 8.8604V5.75729H135.041V4.31599H133.56V2.87471H127.543V4.31599H126.031V5.75729H124.55V20.1151H126.031V21.517H127.543V22.9583H133.56V21.517H135.041V20.1151H136.553V16.9805H140.467V21.5249H139.546V22.9661H138.033V24.4074H136.553V25.8487H124.558V24.4074H123.046V22.9661H121.565V21.5249H120.053V4.32387H121.565V2.88258H123.046V1.44129H124.558V0H136.553V1.44129H138.033V2.88258H139.546V4.32387H140.467V8.86827H136.553V8.8604Z" fill="white"/>
</svg>
