<svg width="160" height="26" viewBox="0 0 160 26" fill="none" xmlns="http://www.w3.org/2000/svg">
<path d="M9.80454 24.4631V21.1668H6.50819V17.8704H3.25025V14.6509H0V11.3161H3.25794V8.01978H6.51587V4.76185H9.81223V1.50391H13.147V4.83868H9.85065V8.09662H6.59271V11.3546H3.33477V14.5741H6.59271V17.7936H9.85065V21.1284H13.147V24.4631H9.80454Z" fill="#8498B5"/>
<path d="M29.4672 7.28239V12.9761H26.5858V18.7082H23.7735V24.4711H20.8613V18.6391H23.712V12.9454H26.5243V7.21323H29.4365V1.51953H32.3486V7.28239H29.4672Z" fill="#8498B5"/>
<path d="M156.435 14.6587V17.9167H152.916V21.1746H149.397V24.4709H145.793V21.1362H149.312V17.8398H152.831V14.5819H156.397V11.3624H152.831V8.10443H149.312V4.8465H145.793V1.51172H149.397V4.76965H152.916V8.02759H156.435V11.3239H160V14.6587H156.435Z" fill="#8498B5"/>
<path d="M65.8195 0.390625V25.6012H61.4244V8.13591H60.2026V10.0799H58.9809V12.6386H57.7208V15.0129H56.499V17.3565H55.2773V19.7H54.4167V21.3597H52.2192V19.7H51.4661V17.3565H50.2444V15.0129H49.0227V12.6386H47.801V10.0799H46.5562V8.13591H45.3268V25.6012H40.9316V0.390625H45.5803V2.37305H47.3092V4.67819H48.9996V7.34448H50.2214V9.82634H51.4431V12.1699H52.7032V14.9438H54.0325V12.1699H55.2543V9.82634H56.476V7.34448H57.6977V4.67819H59.4266V2.37305H61.117V0.390625H65.8195Z" fill="white"/>
<path d="M89.2016 16.2423V19.5541H87.7571V21.8976H86.2818V24.2028H84.8065V25.6089H69.7539V0.390625H84.307V1.79676H85.7823V5.07775H87.2576V8.32032H85.7823V10.7715H84.8065V12.1008H86.2818V13.9372H87.7571V16.2423H89.2016ZM74.149 3.2029V10.1875H81.3872V8.31263H82.8625V5.07006H81.3872V3.19522H74.149V3.2029ZM84.8065 16.2423H83.3619V14.4059H81.8866V12.9998H74.1414V22.7966H81.8866V21.3905H83.3619V19.5541H84.8065V16.2423Z" fill="white"/>
<path d="M113.697 0.390625V25.6012H109.341V23.5112H107.935V21.3828H106.528V19.2928H105.122V17.2028H103.716V15.1128H102.31V12.9844H100.866V10.8944H99.4594V8.8044H98.0532V6.20727H96.6471V25.5858H92.252V0.390625H97.5845V1.47404H98.9907V3.56404H100.397V5.65403H101.803V7.74403H103.209V9.87245H104.654V11.9624H106.06V14.0524H107.466V15.9964H108.403V17.8329H109.341V0.390625H113.697Z" fill="white"/>
<path d="M133.222 9.03491V6.00749H131.746V4.60135H130.302V3.19522H124.431V4.60135H122.956V6.00749H121.511V20.0151H122.956V21.3828H124.431V22.7889H130.302V21.3828H131.746V20.0151H133.222V16.9569H137.04V21.3905H136.141V22.7966H134.666V24.2028H133.222V25.6089H121.519V24.2028H120.044V22.7966H118.599V21.3905H117.124V4.60904H118.599V3.2029H120.044V1.79676H121.519V0.390625H133.222V1.79676H134.666V3.2029H136.141V4.60904H137.04V9.0426H133.222V9.03491Z" fill="white"/>
</svg>
