<svg width="40" height="40" viewBox="0 0 40 40" fill="none" xmlns="http://www.w3.org/2000/svg">
<rect width="2" height="4" transform="matrix(-1 0 0 1 14 14)" fill="#8397B4"/>
<rect width="2" height="4" transform="matrix(-1 0 0 1 12 13)" fill="#8397B4"/>
<rect width="2" height="4" transform="matrix(-1 0 0 1 16 13)" fill="#8397B4"/>
<rect width="2" height="4" transform="matrix(-1 0 0 1 10 14)" fill="#8397B4"/>
<rect width="2" height="4" transform="matrix(-1 0 0 1 22 14)" fill="#8397B4"/>
<rect width="2" height="4" transform="matrix(-1 0 0 1 20 13)" fill="#8397B4"/>
<rect width="2" height="4" transform="matrix(-1 0 0 1 24 13)" fill="#8397B4"/>
<rect width="2" height="4" transform="matrix(-1 0 0 1 18 14)" fill="#8397B4"/>
<rect width="2" height="4" transform="matrix(-1 0 0 1 30 14)" fill="#8397B4"/>
<rect width="2" height="4" transform="matrix(-1 0 0 1 28 13)" fill="#8397B4"/>
<rect width="2" height="4" transform="matrix(-1 0 0 1 32 13)" fill="#8397B4"/>
<rect width="2" height="4" transform="matrix(-1 0 0 1 26 14)" fill="#8397B4"/>
<rect width="2" height="4" transform="matrix(-1 0 0 1 14 24)" fill="#8397B4"/>
<rect width="2" height="4" transform="matrix(-1 0 0 1 12 23)" fill="#8397B4"/>
<rect width="2" height="4" transform="matrix(-1 0 0 1 16 23)" fill="#8397B4"/>
<rect width="2" height="4" transform="matrix(-1 0 0 1 10 24)" fill="#8397B4"/>
<rect width="2" height="4" transform="matrix(-1 0 0 1 22 24)" fill="#8397B4"/>
<rect width="2" height="4" transform="matrix(-1 0 0 1 20 23)" fill="#8397B4"/>
<rect width="2" height="4" transform="matrix(-1 0 0 1 24 23)" fill="#8397B4"/>
<rect width="2" height="4" transform="matrix(-1 0 0 1 18 24)" fill="#8397B4"/>
<rect width="2" height="4" transform="matrix(-1 0 0 1 30 24)" fill="#8397B4"/>
<rect width="2" height="4" transform="matrix(-1 0 0 1 28 23)" fill="#8397B4"/>
<rect width="2" height="4" transform="matrix(-1 0 0 1 32 23)" fill="#8397B4"/>
<rect width="2" height="4" transform="matrix(-1 0 0 1 26 24)" fill="#8397B4"/>
</svg>
