<svg width="24" height="5" viewBox="0 0 24 5" fill="none" xmlns="http://www.w3.org/2000/svg">
<rect width="2" height="4" transform="matrix(-1 0 0 1 6 1)" fill="#8397B4"/>
<rect width="2" height="4" transform="matrix(-1 0 0 1 4 0)" fill="#8397B4"/>
<rect width="2" height="4" transform="matrix(-1 0 0 1 8 0)" fill="#8397B4"/>
<rect width="2" height="4" transform="matrix(-1 0 0 1 2 1)" fill="#8397B4"/>
<rect width="2" height="4" transform="matrix(-1 0 0 1 14 1)" fill="#8397B4"/>
<rect width="2" height="4" transform="matrix(-1 0 0 1 12 0)" fill="#8397B4"/>
<rect width="2" height="4" transform="matrix(-1 0 0 1 16 0)" fill="#8397B4"/>
<rect width="2" height="4" transform="matrix(-1 0 0 1 10 1)" fill="#8397B4"/>
<rect width="2" height="4" transform="matrix(-1 0 0 1 22 1)" fill="#8397B4"/>
<rect width="2" height="4" transform="matrix(-1 0 0 1 20 0)" fill="#8397B4"/>
<rect width="2" height="4" transform="matrix(-1 0 0 1 24 0)" fill="#8397B4"/>
<rect width="2" height="4" transform="matrix(-1 0 0 1 18 1)" fill="#8397B4"/>
</svg>
