<svg width="40" height="40" viewBox="0 0 40 40" fill="none" xmlns="http://www.w3.org/2000/svg">
<circle cx="20" cy="20" r="20" fill="#F8F8F8"/>
<path d="M26.4309 12.2148H13.5691C11.0457 12.2148 9 14.2605 9 16.784V23.2135C9 25.7369 11.0457 27.7826 13.5691 27.7826H26.4309C28.9543 27.7826 31 25.7369 31 23.2135V16.784C31 14.2605 28.9543 12.2148 26.4309 12.2148ZM23.3408 20.3115L17.325 23.1807C17.1647 23.2572 16.9795 23.1403 16.9795 22.9628V17.045C16.9795 16.8649 17.1695 16.7482 17.3302 16.8296L23.346 19.8781C23.5249 19.9688 23.5218 20.2253 23.3408 20.3115Z" fill="#2B4E82"/>
</svg>
